# xmcd CD database file
#
# Track frame offsets:
#	150
#	25556
#	40784
#	56151
#	70937
#	89974
#	109189
#	119511
#	131595
#	145366
#	161307
#	177544
#	188554
#	201586
#
# Disc length: 2891 seconds
#
# Revision: 0
# Processed by: cddbd v1.5.2PL0 Copyright (c) Steve Scherf et al.
# Submitted via: CDex 1.51
#
DISCID=d20b490e
DTITLE=Bud Shank Quintet - Lou Levy Trio - Jazz In Hollywood
DYEAR=1997
DGENRE=Jazz
TTITLE0=Bud Shank - Casa De Luz
TTITLE1=Bud Shank - Lotus Bud
TTITLE2=Bud Shank - Left Bank
TTITLE3=Bud Shank - Shank's Pranks
TTITLE4=Bud Shank - Jasmine
TTITLE5=Bud Shank - Just A Few
TTITLE6=Lou Levy - The Gentleman Is A Dope
TTITLE7=Lou Levy - Serenade In Blue
TTITLE8=Lou Levy - Woody 'N You
TTITLE9=Lou Levy - Tres Palabras (Without You)
TTITLE10=Lou Levy - All The Things You Are
TTITLE11=Lou Levy - Tiny's Other Blues
TTITLE12=Lou Levy - Like Someone In Love
TTITLE13=Lou Levy - Blue Denim
EXTD=YEAR: 1997
EXTT0=
EXTT1=
EXTT2=
EXTT3=
EXTT4=
EXTT5=
EXTT6=
EXTT7=
EXTT8=
EXTT9=
EXTT10=
EXTT11=
EXTT12=
EXTT13=
PLAYORDER=
